<svg width="48" height="48" viewBox="0 0 48 48" fill="none" xmlns="http://www.w3.org/2000/svg">
<path d="M8 9H14M40 9H20" stroke="white" stroke-width="3" stroke-linecap="round" stroke-linejoin="round"/>
<path d="M8 17H40" stroke="white" stroke-width="3" stroke-linecap="round" stroke-linejoin="round"/>
<path d="M12.2426 35L8 39.2426M12.2426 39.2427L8 35" stroke="white" stroke-width="3" stroke-linecap="round" stroke-linejoin="round"/>
<path d="M21.2426 35L17 39.2426M21.2426 39.2427L17 35" stroke="white" stroke-width="3" stroke-linecap="round" stroke-linejoin="round"/>
<path d="M21.2426 24L17 28.2426M21.2426 28.2427L17 24" stroke="white" stroke-width="3" stroke-linecap="round" stroke-linejoin="round"/>
<path d="M12.485 24L8.24237 28.2426M12.485 28.2427L8.24237 24" stroke="white" stroke-width="3" stroke-linecap="round" stroke-linejoin="round"/>
<path d="M31.2426 24L27 28.2426M31.2426 28.2427L27 24" stroke="white" stroke-width="3" stroke-linecap="round" stroke-linejoin="round"/>
<path d="M40 24L35.7574 28.2426M40 28.2427L35.7574 24" stroke="white" stroke-width="3" stroke-linecap="round" stroke-linejoin="round"/>
<path d="M31.2426 35L27 39.2426M31.2426 39.2427L27 35" stroke="white" stroke-width="3" stroke-linecap="round" stroke-linejoin="round"/>
<path d="M40.2426 35L36 39.2426M40.2426 39.2427L36 35" stroke="white" stroke-width="3" stroke-linecap="round" stroke-linejoin="round"/>
</svg>
