<svg width="48" height="48" viewBox="0 0 48 48" fill="none" xmlns="http://www.w3.org/2000/svg">
<path d="M27 35L31.2426 39.2426" stroke="white" stroke-width="3" stroke-linecap="round" stroke-linejoin="round"/>
<path d="M22 26L26.2426 30.2426" stroke="white" stroke-width="3" stroke-linecap="round" stroke-linejoin="round"/>
<path d="M17 35L21.2426 39.2426" stroke="white" stroke-width="3" stroke-linecap="round" stroke-linejoin="round"/>
<path d="M31.2427 35L27 39.2426" stroke="white" stroke-width="3" stroke-linecap="round" stroke-linejoin="round"/>
<path d="M26.2427 26L22 30.2426" stroke="white" stroke-width="3" stroke-linecap="round" stroke-linejoin="round"/>
<path d="M21.2427 35L17 39.2426" stroke="white" stroke-width="3" stroke-linecap="round" stroke-linejoin="round"/>
<path d="M35.6191 18.0007C34.9173 15.2819 33.2844 12.8954 31.0045 11.2564C28.7246 9.61748 25.9422 8.82988 23.1416 9.03074C20.3409 9.2316 17.6994 10.4082 15.6767 12.3557C13.6541 14.3033 12.3784 16.8984 12.0718 19.6894" stroke="white" stroke-width="3" stroke-linecap="round"/>
<path d="M11.9861 38.1591C10.2044 37.3782 8.68905 36.0947 7.62581 34.4656C6.56256 32.8365 5.99756 30.9327 6.00001 28.9874C6.00246 27.0421 6.57226 25.1397 7.63962 23.5133C8.70697 21.8869 10.2255 20.6072 12.0092 19.8308" stroke="white" stroke-width="3" stroke-linecap="round"/>
<path d="M35.655 18.0335C37.5534 18.9202 39.1591 20.3306 40.2832 22.0989C41.4072 23.8672 42.0029 25.9198 42 28.0151C41.9971 30.1104 41.3959 32.1613 40.267 33.9265C39.1381 35.6917 37.5285 37.0978 35.6276 37.9792" stroke="white" stroke-width="3" stroke-linecap="round"/>
</svg>
