<svg width="48" height="48" viewBox="0 0 48 48" fill="none" xmlns="http://www.w3.org/2000/svg">
<path d="M38.7007 22.6583C39.8525 20.7542 40.258 18.491 39.839 16.3054C39.42 14.1199 38.2062 12.1671 36.4318 10.824C34.6575 9.48093 32.4485 8.84283 30.2313 9.03291C28.0141 9.22299 25.9459 10.2278 24.426 11.8532" stroke="white" stroke-width="3"/>
<path d="M44.7336 15.2822L43.7527 15.4764" stroke="white" stroke-width="3" stroke-linecap="round" stroke-linejoin="round"/>
<path d="M28.2821 4.26636L28.4762 5.24733" stroke="white" stroke-width="3" stroke-linecap="round" stroke-linejoin="round"/>
<path d="M44.2526 22.5132L43.306 22.1908" stroke="white" stroke-width="3" stroke-linecap="round" stroke-linejoin="round"/>
<path d="M35.5131 4.74756L35.1907 5.69418" stroke="white" stroke-width="3" stroke-linecap="round" stroke-linejoin="round"/>
<path d="M22.438 8.21777L21.7794 7.46529" stroke="white" stroke-width="3" stroke-linecap="round" stroke-linejoin="round"/>
<path d="M41.5347 8.77954L40.7822 9.43815" stroke="white" stroke-width="3" stroke-linecap="round" stroke-linejoin="round"/>
<path d="M25 35L24.5 37.5M23 45L23.5 42.5" stroke="white" stroke-width="3" stroke-linecap="round"/>
<path d="M35.6191 21.0007C34.9173 18.2819 33.2844 15.8954 31.0045 14.2564C28.7246 12.6175 25.9422 11.8299 23.1416 12.0307C20.3409 12.2316 17.6994 13.4082 15.6767 15.3557C13.6541 17.3033 12.3784 19.8984 12.0718 22.6894" stroke="white" stroke-width="3" stroke-linecap="round"/>
<path d="M13.0031 41.5404C11.055 40.9284 9.34098 39.7348 8.09135 38.1199C6.84171 36.505 6.11639 34.5463 6.01286 32.507C5.90933 30.4677 6.43257 28.4456 7.51223 26.7125C8.5919 24.9794 10.1762 23.6183 12.0523 22.8122" stroke="white" stroke-width="3" stroke-linecap="round"/>
<path d="M35.655 21.0335C37.5995 21.9417 39.2359 23.3989 40.3625 25.2257C41.4892 27.0524 42.0568 29.1688 41.9955 31.3141C41.9342 33.4594 41.2467 35.5399 40.0177 37.2994C38.7886 39.0588 37.0717 40.4202 35.0785 41.216" stroke="white" stroke-width="3" stroke-linecap="round"/>
</svg>
