<svg width="48" height="48" viewBox="0 0 48 48" fill="none" xmlns="http://www.w3.org/2000/svg">
<path d="M12.0586 22.8067L12.6503 24.1851C13.1525 23.9695 13.4976 23.4979 13.5513 22.9541L12.0586 22.8067ZM35.6264 21.0173L34.1732 21.389C34.2847 21.8252 34.5864 22.1882 34.9948 22.3778L35.6264 21.0173ZM13.5513 22.9541C14.0753 17.6469 18.5543 13.5 24 13.5V10.5C16.9963 10.5 11.2398 15.8321 10.5658 22.6594L13.5513 22.9541ZM24 13.5C28.896 13.5 33.0128 16.8523 34.1732 21.389L37.0796 20.6456C35.5878 14.8134 30.2995 10.5 24 10.5V13.5ZM34.9948 22.3778C38.2486 23.8883 40.5 27.1828 40.5 31H43.5C43.5 25.9721 40.5315 21.6406 36.258 19.6567L34.9948 22.3778ZM40.5 31C40.5 36.2467 36.2467 40.5 31 40.5V43.5C37.9036 43.5 43.5 37.9036 43.5 31H40.5ZM31 40.5H28V43.5H31V40.5ZM28 40.5H23V43.5H28V40.5ZM23 40.5H16V43.5H23V40.5ZM16 40.5C11.3056 40.5 7.5 36.6944 7.5 32H4.5C4.5 38.3513 9.64873 43.5 16 43.5V40.5ZM7.5 32C7.5 28.4976 9.61864 25.4865 12.6503 24.1851L11.4669 21.4284C7.37239 23.1861 4.5 27.2559 4.5 32H7.5Z" fill="white"/>
<path d="M38.7007 22.6583C39.8525 20.7542 40.258 18.491 39.839 16.3054C39.42 14.1199 38.2062 12.1671 36.4318 10.824C34.6575 9.48093 32.4485 8.84283 30.2313 9.03291C28.0141 9.22299 25.9459 10.2278 24.426 11.8532" stroke="white" stroke-width="3"/>
<path d="M44.7337 15.2822L43.7527 15.4764" stroke="white" stroke-width="3" stroke-linecap="round" stroke-linejoin="round"/>
<path d="M28.2821 4.26636L28.4762 5.24733" stroke="white" stroke-width="3" stroke-linecap="round" stroke-linejoin="round"/>
<path d="M44.2526 22.5132L43.306 22.1908" stroke="white" stroke-width="3" stroke-linecap="round" stroke-linejoin="round"/>
<path d="M35.5131 4.74756L35.1907 5.69418" stroke="white" stroke-width="3" stroke-linecap="round" stroke-linejoin="round"/>
<path d="M22.438 8.21777L21.7794 7.46529" stroke="white" stroke-width="3" stroke-linecap="round" stroke-linejoin="round"/>
<path d="M41.5347 8.77954L40.7822 9.43815" stroke="white" stroke-width="3" stroke-linecap="round" stroke-linejoin="round"/>
</svg>
