<svg width="48" height="48" viewBox="0 0 48 48" fill="none" xmlns="http://www.w3.org/2000/svg">
<g clip-path="url(#clip0_1_1103)">
<path d="M43.9999 15.9592C44.0104 19.0463 42.8307 22.0188 40.7061 24.2586" stroke="white" stroke-width="3" stroke-linecap="round"/>
<path d="M33.1867 4.05882C30.5008 3.7919 27.8034 4.43827 25.5302 5.8935C23.257 7.34873 21.5407 9.52783 20.6587 12.0788" stroke="white" stroke-width="3" stroke-linecap="round"/>
<path d="M43.9606 15.9538C42.41 16.1034 40.8458 15.8887 39.3929 15.3268C37.9399 14.7648 36.6384 13.8712 35.5919 12.7172C34.5455 11.5631 33.7832 10.1806 33.3657 8.6797C32.9483 7.17884 32.8872 5.60121 33.1875 4.07259" stroke="white" stroke-width="3" stroke-linecap="round"/>
<path d="M12.0586 22.8067L12.6503 24.1851C13.1525 23.9695 13.4976 23.4979 13.5513 22.9541L12.0586 22.8067ZM35.6264 21.0173L34.1732 21.389C34.2847 21.8252 34.5864 22.1882 34.9948 22.3778L35.6264 21.0173ZM13.5513 22.9541C14.0753 17.6469 18.5543 13.5 24 13.5V10.5C16.9963 10.5 11.2398 15.8321 10.5658 22.6594L13.5513 22.9541ZM24 13.5C28.896 13.5 33.0128 16.8523 34.1732 21.389L37.0796 20.6456C35.5878 14.8134 30.2995 10.5 24 10.5V13.5ZM34.9948 22.3778C38.2486 23.8883 40.5 27.1828 40.5 31H43.5C43.5 25.9721 40.5315 21.6406 36.258 19.6567L34.9948 22.3778ZM40.5 31C40.5 36.2467 36.2467 40.5 31 40.5V43.5C37.9036 43.5 43.5 37.9036 43.5 31H40.5ZM31 40.5H28V43.5H31V40.5ZM28 40.5H23V43.5H28V40.5ZM23 40.5H16V43.5H23V40.5ZM16 40.5C11.3056 40.5 7.5 36.6944 7.5 32H4.5C4.5 38.3513 9.64873 43.5 16 43.5V40.5ZM7.5 32C7.5 28.4976 9.61864 25.4865 12.6503 24.1851L11.4669 21.4284C7.37239 23.1861 4.5 27.2559 4.5 32H7.5Z" fill="white"/>
</g>
<defs>
<clipPath id="clip0_1_1103">
<rect width="48" height="48" fill="white"/>
</clipPath>
</defs>
</svg>
