<svg width="48" height="48" viewBox="0 0 48 48" fill="none" xmlns="http://www.w3.org/2000/svg">
<path d="M12.0586 19.8067L12.6503 21.1851C13.1525 20.9695 13.4976 20.4979 13.5513 19.9541L12.0586 19.8067ZM35.6264 18.0173L34.1732 18.389C34.2847 18.8252 34.5864 19.1882 34.9948 19.3778L35.6264 18.0173ZM13.5513 19.9541C14.0753 14.6469 18.5543 10.5 24 10.5V7.5C16.9963 7.5 11.2398 12.8321 10.5658 19.6594L13.5513 19.9541ZM24 10.5C28.896 10.5 33.0128 13.8523 34.1732 18.389L37.0796 17.6456C35.5878 11.8134 30.2995 7.5 24 7.5V10.5ZM34.9948 19.3778C38.2486 20.8883 40.5 24.1828 40.5 28H43.5C43.5 22.9721 40.5315 18.6406 36.258 16.6567L34.9948 19.3778ZM40.5 28C40.5 33.2467 36.2467 37.5 31 37.5V40.5C37.9036 40.5 43.5 34.9036 43.5 28H40.5ZM31 37.5H28V40.5H31V37.5ZM28 37.5H23V40.5H28V37.5ZM23 37.5H16V40.5H23V37.5ZM16 37.5C11.3056 37.5 7.5 33.6944 7.5 29H4.5C4.5 35.3513 9.64873 40.5 16 40.5V37.5ZM7.5 29C7.5 25.4976 9.61864 22.4865 12.6503 21.1851L11.4669 18.4284C7.37239 20.1861 4.5 24.2559 4.5 29H7.5Z" fill="white"/>
</svg>
