<svg width="48" height="48" viewBox="0 0 48 48" fill="none" xmlns="http://www.w3.org/2000/svg">
<path d="M41.9983 24.2491L43.4982 24.2695C43.506 23.6923 43.182 23.1619 42.6649 22.9054C42.1478 22.6489 41.5294 22.7118 41.0747 23.0672L41.9983 24.2491ZM23.7512 6.0016L24.933 6.92528C25.2885 6.4705 25.3514 5.85211 25.0949 5.33503C24.8384 4.81795 24.308 4.49392 23.7308 4.50174L23.7512 6.0016ZM41.0747 23.0672C39.1234 24.5922 36.6698 25.5001 34 25.5001V28.5001C37.3628 28.5001 40.4619 27.3536 42.922 25.431L41.0747 23.0672ZM34 25.5001C27.6487 25.5001 22.5 20.3514 22.5 14.0001H19.5C19.5 22.0082 25.9919 28.5001 34 28.5001V25.5001ZM22.5 14.0001C22.5 11.3302 23.408 8.87659 24.933 6.92528L22.5693 5.07792C20.6466 7.53801 19.5 10.6373 19.5 14.0001H22.5ZM7.5 23.9999C7.5 14.9635 14.7644 7.62351 23.7715 7.50146L23.7308 4.50174C13.0851 4.64599 4.5 13.3203 4.5 23.9999H7.5ZM24 40.4999C14.8873 40.4999 7.5 33.1126 7.5 23.9999H4.5C4.5 34.7695 13.2304 43.4999 24 43.4999V40.4999ZM40.4984 24.2288C40.3762 33.2357 33.0363 40.4999 24 40.4999V43.4999C34.6795 43.4999 43.3537 34.915 43.4982 24.2695L40.4984 24.2288Z" fill="white"/>
</svg>
