<svg width="48" height="48" viewBox="0 0 48 48" fill="none" xmlns="http://www.w3.org/2000/svg">
<path d="M20 32L19.5 34.5M18 42L18.5 39.5" stroke="white" stroke-width="3" stroke-linecap="round"/>
<path d="M26 32L25 37H29.5L28 42.5" stroke="white" stroke-width="3" stroke-linecap="round" stroke-linejoin="round"/>
<path d="M35.6191 18.0007C34.9173 15.2819 33.2844 12.8954 31.0045 11.2564C28.7246 9.61748 25.9422 8.82988 23.1416 9.03074C20.3409 9.2316 17.6994 10.4082 15.6767 12.3557C13.6541 14.3033 12.3784 16.8984 12.0718 19.6894" stroke="white" stroke-width="3" stroke-linecap="round"/>
<path d="M13.0031 38.5404C11.055 37.9284 9.34098 36.7348 8.09135 35.1199C6.84171 33.505 6.11639 31.5463 6.01286 29.507C5.90933 27.4677 6.43257 25.4456 7.51223 23.7125C8.5919 21.9794 10.1762 20.6183 12.0523 19.8122" stroke="white" stroke-width="3" stroke-linecap="round"/>
<path d="M35.655 18.0335C37.5995 18.9417 39.2359 20.3989 40.3625 22.2257C41.4892 24.0524 42.0568 26.1688 41.9955 28.3141C41.9342 30.4594 41.2467 32.5399 40.0177 34.2994C38.7886 36.0588 37.0717 37.4202 35.0785 38.216" stroke="white" stroke-width="3" stroke-linecap="round"/>
</svg>
