<svg width="48" height="48" viewBox="0 0 48 48" fill="none" xmlns="http://www.w3.org/2000/svg">
<path d="M25 32L24.5 34.5M23 42L23.5 39.5" stroke="white" stroke-width="3" stroke-linecap="round"/>
<path d="M20 32L19.5 34.5M18 42L18.5 39.5" stroke="white" stroke-width="3" stroke-linecap="round"/>
<path d="M13 41.9999L13.6623 38.8225" stroke="white" stroke-width="3" stroke-linecap="round"/>
<path d="M33 41.9996L33.8004 38.6749" stroke="white" stroke-width="3" stroke-linecap="round"/>
<path d="M30 32L29.5 34.5M28 42L28.5 39.5" stroke="white" stroke-width="3" stroke-linecap="round"/>
<path d="M35.6191 18.0007C34.9173 15.2819 33.2844 12.8954 31.0045 11.2564C28.7246 9.61748 25.9422 8.82988 23.1416 9.03074C20.3409 9.2316 17.6994 10.4082 15.6767 12.3557C13.6541 14.3033 12.3784 16.8984 12.0718 19.6894" stroke="white" stroke-width="3" stroke-linecap="round"/>
<path d="M13.5723 38.7008C11.5914 38.2051 9.80983 37.1149 8.46693 35.5767C7.12403 34.0385 6.28419 32.1261 6.0603 30.0965C5.8364 28.0669 6.23919 26.0174 7.21452 24.2235C8.18985 22.4295 9.69097 20.9772 11.5161 20.0616" stroke="white" stroke-width="3" stroke-linecap="round"/>
<path d="M35.655 18.0335C37.6949 18.9862 39.3933 20.542 40.5209 22.4907C41.6485 24.4394 42.151 26.6871 41.9606 28.9305C41.7701 31.1738 40.8959 33.3047 39.4559 35.0355C38.0159 36.7662 36.0796 38.0133 33.9082 38.6086" stroke="white" stroke-width="3" stroke-linecap="round"/>
</svg>
