<svg width="48" height="48" viewBox="0 0 48 48" fill="none" xmlns="http://www.w3.org/2000/svg">
<path d="M8 28H40" stroke="white" stroke-width="3" stroke-linecap="round" stroke-linejoin="round"/>
<path d="M8 34H14M40 34H20" stroke="white" stroke-width="3" stroke-linecap="round" stroke-linejoin="round"/>
<path d="M8 40H40" stroke="white" stroke-width="3" stroke-linecap="round" stroke-linejoin="round"/>
<path d="M8.04015 22.0209C7.82025 19.2294 8.50755 16.4415 9.99979 14.0721C11.492 11.7027 13.7094 9.87848 16.322 8.87085C18.9346 7.86323 21.8026 7.72609 24.4994 8.47986C27.1962 9.23362 29.5776 10.838 31.289 13.0542" stroke="white" stroke-width="3" stroke-linecap="round"/>
<path d="M39.9041 22.235C40.0912 21.0378 40.0038 19.8138 39.6487 18.6553C39.2935 17.4968 38.6799 16.4341 37.854 15.5474C37.0281 14.6608 36.0117 13.9733 34.8813 13.5369C33.7509 13.1005 32.5361 12.9265 31.3287 13.0282" stroke="white" stroke-width="3" stroke-linecap="round"/>
</svg>
